# xmcd
#
# Track frame offsets:
#	150
#	3829
#	18718
#	33487
#	51288
#	69704
#	91455
#	109817
#	129125
#	140321
#	153292
#	170858
#	189793
#	203013
#	217265
#	240294
#	257059
#	272192
#	290408
#	307347
#	325124
#	348016
#
# Disc length: 4705 seconds
#
# Revision: 1
# Processed by: cddbd v1.5.1PL0 Copyright (c) Steve Scherf et al.
# Submitted via: audiograbber 1.83.01
#
DISCID=40125f16
DTITLE=Various Artist - БУМЕРанг Продолжение. (2004)
DYEAR=1900
DGENRE=
TTITLE0=Intro-Продолжение. - Продолжение.
TTITLE1=ZloyKakPes. - Счастливое детство.
TTITLE2=Банги Хэп. - Я возьму это сам.
TTITLE3=Dj Savillov feat. Танок на Майдани Конго. - Зачекай. (Rmx)
TTITLE4=Record. - Я иду на рекорд.
TTITLE5=Los Huliganos. - Slavyna. (Walk Mix)
TTITLE6=Zorg. - Jaa Jumalaga Mann.
TTITLE7=Dmitriyy Gee. - Zvezda.
TTITLE8=Hate. (Skinhate) - Билет до рая.
TTITLE9=Дельфин and Паук. - Lenin в кепке.
TTITLE10=Агрегат. - Во имя закона.
TTITLE11=Урна Урана. - Босота.
TTITLE12=Dj Vol'D'Mair feat. Hate. - Laino. (Rmx)
TTITLE13=Корни. - Кокон.
TTITLE14=Отпечатки пальцев. (Dj Шмель feat. Aphrodite) - Calcutta.
TTITLE15=Серега и КДБ. - Про футбол?
TTITLE16=Урна Урана. - День независимости.
TTITLE17=HateMix. - Ticket Fuckin Fuck Mix.
TTITLE18=Южный централ. - Моя звезда.
TTITLE19=Рекорд. - Плачь.
TTITLE20=ИБ. - Мое послание жизни. (MPG)
TTITLE21=Klonarim Klan. - Diagnozz.
EXTD=
EXTT0=
EXTT1=
EXTT2=
EXTT3=
EXTT4=
EXTT5=
EXTT6=
EXTT7=
EXTT8=
EXTT9=
EXTT10=
EXTT11=
EXTT12=
EXTT13=
EXTT14=
EXTT15=
EXTT16=
EXTT17=
EXTT18=
EXTT19=
EXTT20=
EXTT21=
PLAYORDER=
